<svg width="720" height="720">
<rect x="0" y="0" width="720" height="720" style="fill:#FFFFFF;" />
<rect x="90" y="0" width="90" height="90" style="fill:#000000;" />
<rect x="270" y="0" width="90" height="90" style="fill:#000000;" />
<rect x="450" y="0" width="90" height="90" style="fill:#000000;" />
<rect x="630" y="0" width="90" height="90" style="fill:#000000;" />
<rect x="0" y="90" width="90" height="90" style="fill:#000000;" />
<rect x="180" y="90" width="90" height="90" style="fill:#000000;" />
<rect x="360" y="90" width="90" height="90" style="fill:#000000;" />
<rect x="540" y="90" width="90" height="90" style="fill:#000000;" />
<rect x="90" y="180" width="90" height="90" style="fill:#000000;" />
<rect x="270" y="180" width="90" height="90" style="fill:#000000;" />
<rect x="450" y="180" width="90" height="90" style="fill:#000000;" />
<rect x="630" y="180" width="90" height="90" style="fill:#000000;" />
<rect x="0" y="270" width="90" height="90" style="fill:#000000;" />
<rect x="180" y="270" width="90" height="90" style="fill:#000000;" />
<rect x="360" y="270" width="90" height="90" style="fill:#000000;" />
<rect x="540" y="270" width="90" height="90" style="fill:#000000;" />
<rect x="90" y="360" width="90" height="90" style="fill:#000000;" />
<rect x="270" y="360" width="90" height="90" style="fill:#000000;" />
<rect x="450" y="360" width="90" height="90" style="fill:#000000;" />
<rect x="630" y="360" width="90" height="90" style="fill:#000000;" />
<rect x="0" y="450" width="90" height="90" style="fill:#000000;" />
<rect x="180" y="450" width="90" height="90" style="fill:#000000;" />
<rect x="360" y="450" width="90" height="90" style="fill:#000000;" />
<rect x="540" y="450" width="90" height="90" style="fill:#000000;" />
<rect x="90" y="540" width="90" height="90" style="fill:#000000;" />
<rect x="270" y="540" width="90" height="90" style="fill:#000000;" />
<rect x="450" y="540" width="90" height="90" style="fill:#000000;" />
<rect x="630" y="540" width="90" height="90" style="fill:#000000;" />
<rect x="0" y="630" width="90" height="90" style="fill:#000000;" />
<rect x="180" y="630" width="90" height="90" style="fill:#000000;" />
<rect x="360" y="630" width="90" height="90" style="fill:#000000;" />
<rect x="540" y="630" width="90" height="90" style="fill:#000000;" />
</svg>